<svg width="12" height="14" viewBox="0 0 12 14" fill="none" xmlns="http://www.w3.org/2000/svg">
<g clip-path="url(#clip0_397_714)">
<path d="M5.40554 10.4991L0.245543 5.62523C0.167738 5.55381 0.105619 5.467 0.0631245 5.37031C0.0206303 5.27362 -0.00131226 5.16916 -0.00131226 5.06354C-0.00131226 4.95792 0.0206303 4.85346 0.0631245 4.75677C0.105619 4.66008 0.167738 4.57327 0.245543 4.50185C0.407293 4.35211 0.61959 4.26893 0.840005 4.26893C1.06042 4.26893 1.27272 4.35211 1.43447 4.50185L6.00001 8.81539L10.5655 4.50277C10.7273 4.3535 10.9394 4.27062 11.1595 4.27062C11.3797 4.27062 11.5917 4.3535 11.7535 4.50277C11.8311 4.57426 11.893 4.66103 11.9353 4.75763C11.9776 4.85422 11.9995 4.95854 11.9995 5.064C11.9995 5.16946 11.9776 5.27378 11.9353 5.37037C11.893 5.46697 11.8311 5.55374 11.7535 5.62523L6.59354 10.4991C6.43254 10.6493 6.22018 10.7322 6.00001 10.7308C5.77953 10.7323 5.56683 10.6494 5.40554 10.4991Z" fill="white"/>
</g>
<defs>
<clipPath id="clip0_397_714">
<rect width="12" height="12" fill="white" transform="matrix(1 0 0 -1 0 12.1154)"/>
</clipPath>
</defs>
</svg>
