<svg width="31" height="30" viewBox="0 0 31 30" fill="none" xmlns="http://www.w3.org/2000/svg">
<path fill-rule="evenodd" clip-rule="evenodd" d="M24.8337 5.26831L23.1261 6.19913L24.5195 7.45679H26.4405C26.7479 7.45679 26.9988 7.70833 26.9988 8.0163V12.7491C26.9988 13.0827 26.7256 13.3565 26.3927 13.3565H23.6726L22.2348 14.2822L23.3805 15.3927H26.8776C28.1395 15.3927 29.1725 14.3575 29.1725 13.093V7.568C29.1725 6.30354 28.1395 5.26831 26.8776 5.26831H24.8337Z" fill="#FDB440"/>
<path fill-rule="evenodd" clip-rule="evenodd" d="M11.1084 18.2331V21.5885L15.6778 22.7914L20.225 21.5885V18.2331L15.6932 16.4673L11.1084 18.2331Z" fill="#E6E2E6"/>
<path fill-rule="evenodd" clip-rule="evenodd" d="M9.20105 22.4576V23.9959L15.4473 25.8404L21.4544 23.9959V22.4576C21.4544 21.9785 21.0634 21.5884 20.5853 21.5884H18.1077H12.5479H10.0685C9.5921 21.5884 9.20105 21.9786 9.20105 22.4576Z" fill="#FDB440"/>
<path fill-rule="evenodd" clip-rule="evenodd" d="M19.0109 21.5884C19.4891 21.5884 19.88 21.9785 19.88 22.4576V23.9959H21.4544V22.4576C21.4544 21.9785 21.0633 21.5884 20.5853 21.5884H19.0109Z" fill="#FE9900"/>
<path fill-rule="evenodd" clip-rule="evenodd" d="M5.72961 24.8017V29.1941C5.72961 29.6372 6.09161 30 6.53387 30H24.1216C24.5639 30 24.9242 29.6372 24.9242 29.1941V24.8017C24.9242 24.3586 24.5639 23.9958 24.1216 23.9958H21.4544H19.8801H9.20106H6.53387C6.09161 23.9958 5.72961 24.3586 5.72961 24.8017Z" fill="#CAC0C9"/>
<path fill-rule="evenodd" clip-rule="evenodd" d="M22.7146 24.8017V29.1941C22.7146 29.6372 22.3526 30 21.9103 30H24.1216C24.5639 30 24.9242 29.6372 24.9242 29.1941V24.8017C24.9242 24.3586 24.5639 23.9958 24.1216 23.9958H21.9189C22.3578 24.0009 22.7146 24.362 22.7146 24.8017Z" fill="#AB9FAA"/>
<path fill-rule="evenodd" clip-rule="evenodd" d="M4.45577 5.26831C3.19389 5.26831 2.16083 6.30349 2.16083 7.568V13.093C2.16083 14.3574 3.19389 15.3927 4.45577 15.3927H7.95282L9.09856 14.2822L7.65909 13.3565H4.94069C4.6077 13.3565 4.33454 13.0828 4.33454 12.7491V8.0163C4.33454 7.70833 4.58555 7.45679 4.89288 7.45679H6.81387L7.95282 6.3172L6.49969 5.26831H4.45577Z" fill="#FDB440"/>
<path fill-rule="evenodd" clip-rule="evenodd" d="M6.49972 5.26837L6.8139 7.45679L7.65912 13.3565L7.95279 15.3927L7.97669 15.5672C8.185 17.0182 9.17541 18.2331 10.6388 18.2331H11.1084H20.225H20.6945C22.1579 18.2331 23.1483 17.0182 23.3566 15.5672L23.3805 15.3927L23.6725 13.3565L24.5195 7.45679L24.8336 5.26837L25.083 3.53335C25.0813 3.53335 25.0813 3.53335 25.0796 3.53335L15.6658 1.76587L6.25386 3.53335C6.24021 3.53511 6.47752 5.11954 6.49972 5.26837Z" fill="#FFF1C7"/>
<path fill-rule="evenodd" clip-rule="evenodd" d="M12.1551 9.32535C11.9075 9.42461 11.8443 9.65728 11.969 9.8592L12.4505 10.5693L13.0976 11.5172L13.1455 12.7321L13.1677 13.4918C13.1882 13.7467 13.3965 13.8802 13.6355 13.8306L14.4022 13.6424L15.6266 13.3412L16.8492 13.6424L17.6159 13.8306C17.8549 13.8802 18.0649 13.7467 18.0854 13.4918L18.1076 12.7321L18.1538 11.5172L18.8521 10.4957L19.2825 9.8592C19.4088 9.65728 19.3439 9.42461 19.0963 9.32535L18.3535 9.06355L17.1684 8.64607L16.3795 7.69984L15.8861 7.10611C15.8126 7.02566 15.7204 6.97779 15.6265 6.96924C15.5309 6.97779 15.4386 7.02572 15.3669 7.10611L14.8717 7.69984L14.0847 8.64607L12.8979 9.06355L12.1551 9.32535Z" fill="#FDB440"/>
<path fill-rule="evenodd" clip-rule="evenodd" d="M16.6015 7.9668C16.3266 10.0902 15.6709 12.0101 14.742 13.5585L15.6265 13.3412L16.8492 13.6424L17.6159 13.8306C17.8549 13.8802 18.0649 13.7467 18.0854 13.4918L18.1076 12.7321L18.1537 11.5172L18.8521 10.4957L19.2824 9.8592C19.4088 9.65728 19.3439 9.42461 19.0963 9.32535L18.3535 9.06355L17.1684 8.64607L16.6015 7.9668Z" fill="#FE9900"/>
<path fill-rule="evenodd" clip-rule="evenodd" d="M18.3382 20.3121V21.5885H19.0109H20.225V19.9117V18.2332H18.3382H11.1084V19.5712H16.7313C17.8037 19.5711 18.3228 19.501 18.3382 20.3121Z" fill="#CAC0C9"/>
<path fill-rule="evenodd" clip-rule="evenodd" d="M4.86389 2.14055C4.86389 2.90537 5.48715 3.52992 6.2504 3.53338H6.25379H25.0795H25.0829C25.8462 3.52998 26.4694 2.90543 26.4694 2.14055V1.39283C26.4695 0.62625 25.8429 0 25.0796 0H22.5455H8.78786H6.25385C5.48885 0 4.86389 0.62625 4.86389 1.39283V2.14055Z" fill="#FDB440"/>
<path fill-rule="evenodd" clip-rule="evenodd" d="M23.1073 2.14055C23.1073 2.90537 22.484 3.52992 21.7225 3.53338H25.0796H25.083C25.8463 3.52998 26.4695 2.90543 26.4695 2.14055V1.39283C26.4695 0.62625 25.8428 0 25.0795 0H22.5455H21.7173C22.4823 0 23.1073 0.62625 23.1073 1.39283V2.14055Z" fill="#FE9900"/>
<path fill-rule="evenodd" clip-rule="evenodd" d="M6.25385 3.5488C6.2658 3.71134 6.47926 5.12813 6.4997 5.26841H20.4026C21.9736 5.24614 21.8096 5.72696 21.603 7.16257L20.4009 15.5467C20.266 16.4793 19.8408 17.3348 19.1441 17.8122C18.7599 18.0757 18.3023 18.2314 17.7849 18.2332H18.3382H20.225H20.6946C22.1579 18.2332 23.1483 17.0183 23.3567 15.5673L23.3806 15.3928L23.6725 13.3566L24.5195 7.45688L24.8337 5.26847L25.083 3.53345C25.0813 3.53345 25.0813 3.53345 25.0796 3.53345C18.8111 3.53339 12.5342 3.5488 6.25385 3.5488Z" fill="#FFE287"/>
<path fill-rule="evenodd" clip-rule="evenodd" d="M27.6904 7.568V13.093C27.6904 14.3574 26.6574 15.3927 25.3938 15.3927H26.8777C28.1396 15.3927 29.1726 14.3575 29.1726 13.093V7.568C29.1726 6.30354 28.1396 5.26831 26.8777 5.26831H25.3938C26.6574 5.26831 27.6904 6.30349 27.6904 7.568Z" fill="#FE9900"/>
<path d="M9.307 27.455C9.05528 27.4551 8.8512 27.2508 8.8512 26.9988C8.85114 26.7468 9.05516 26.5425 9.30688 26.5425L21.3485 26.5408C21.6003 26.5407 21.8043 26.745 21.8043 26.997C21.8044 27.249 21.6004 27.4533 21.3487 27.4533L9.307 27.455Z" fill="#9C8F9A"/>
</svg>
