<svg width="17" height="16" viewBox="0 0 17 16" fill="none" xmlns="http://www.w3.org/2000/svg">
<path d="M2.8988 0C2.12337 0 1.49255 0.630813 1.49255 1.40625V14.5938C1.49255 15.3692 2.12337 16 2.8988 16H8.5238C9.29924 16 9.93005 15.3692 9.93005 14.5938V1.40625C9.93005 0.630813 9.29924 0 8.5238 0H2.8988ZM5.7113 14.125C5.45243 14.125 5.24255 13.9151 5.24255 13.6562C5.24255 13.3974 5.45243 13.1875 5.7113 13.1875C5.97018 13.1875 6.18005 13.3974 6.18005 13.6562C6.18005 13.9151 5.97018 14.125 5.7113 14.125ZM6.6488 2.8125H4.7738C4.51471 2.8125 4.30505 2.60284 4.30505 2.34375C4.30505 2.08466 4.51471 1.875 4.7738 1.875H6.6488C6.9079 1.875 7.11755 2.08466 7.11755 2.34375C7.11755 2.60284 6.9079 2.8125 6.6488 2.8125Z" fill="#06E5A0"/>
<path d="M10.3868 16H13.2113C13.9867 16 14.6176 15.3692 14.6176 14.5938V1.40625C14.6176 0.630813 13.9867 0 13.2113 0H10.3868C10.6843 0.392938 10.8676 0.876625 10.8676 1.40625V14.5938C10.8676 15.1234 10.6843 15.6071 10.3868 16ZM12.7426 1.875C13.0014 1.875 13.2113 2.08488 13.2113 2.34375C13.2113 2.60262 13.0014 2.8125 12.7426 2.8125C12.4837 2.8125 12.2738 2.60262 12.2738 2.34375C12.2738 2.08488 12.4837 1.875 12.7426 1.875ZM12.7426 3.75C13.0014 3.75 13.2113 3.95988 13.2113 4.21875C13.2113 4.47762 13.0014 4.6875 12.7426 4.6875C12.4837 4.6875 12.2738 4.47762 12.2738 4.21875C12.2738 3.95988 12.4837 3.75 12.7426 3.75Z" fill="#06E5A0"/>
</svg>
