<svg width="17" height="21" viewBox="0 0 17 21" fill="none" xmlns="http://www.w3.org/2000/svg">
<circle cx="7" cy="4.5" r="3.25" stroke="black" stroke-width="1.5"/>
<path d="M8.5 19.5H3C1.89543 19.5 1 18.6046 1 17.5V11.5C1 10.3954 1.89543 9.5 3 9.5H11.5C12.3284 9.5 13 10.1716 13 11V11" stroke="black" stroke-width="1.5"/>
<path d="M13.8691 13.1504C13.3938 13.1505 12.979 13.2608 12.6104 13.4746C12.2255 13.6979 11.9295 13.9864 11.71 14.3418L11.5195 14.6504H6.82617L5.94043 15.499L7.4082 16.9062L8.01172 16.4727L8.3916 16.1992L8.77051 16.4727L9.44629 16.957L10.1797 16.4619L10.3447 16.3496H11.5186L11.709 16.6582C11.929 17.014 12.2267 17.3021 12.6113 17.5254C12.9793 17.7389 13.3935 17.8495 13.8691 17.8496C14.5769 17.8496 15.1542 17.6187 15.6377 17.1553C16.1198 16.693 16.3496 16.1536 16.3496 15.5C16.3496 14.8464 16.1198 14.307 15.6377 13.8447C15.1542 13.3813 14.5769 13.1504 13.8691 13.1504Z" stroke="black" stroke-width="1.3"/>
<circle cx="14" cy="15.5" r="1" fill="black"/>
</svg>
