<svg width="17" height="16" viewBox="0 0 17 16" fill="none" xmlns="http://www.w3.org/2000/svg">
<g clip-path="url(#clip0_397_111)">
<mask id="mask0_397_111" style="mask-type:luminance" maskUnits="userSpaceOnUse" x="0" y="0" width="17" height="16">
<path d="M16.0551 0H0.0550537V16H16.0551V0Z" fill="white"/>
</mask>
<g mask="url(#mask0_397_111)">
<path d="M8.55408 8.001C8.55408 8.0894 8.5892 8.17417 8.6517 8.23668C8.71421 8.29918 8.79898 8.33429 8.88737 8.33429H14.5534C14.8626 8.33377 15.159 8.21069 15.3776 7.99204C15.5963 7.77339 15.7194 7.47699 15.7199 7.16777V5.83461C15.7195 5.52534 15.5965 5.22883 15.3778 5.01015C15.1591 4.79146 14.8626 4.66844 14.5534 4.66809H8.88737C8.79898 4.66809 8.71421 4.70321 8.6517 4.76571C8.5892 4.82821 8.55408 4.91299 8.55408 5.00138V8.001Z" fill="white"/>
<path d="M2.38809 8.33429H7.22081C7.3092 8.33429 7.39398 8.29918 7.45648 8.23668C7.51899 8.17417 7.5541 8.0894 7.5541 8.001V5.00138C7.5541 4.91299 7.51899 4.82821 7.45648 4.76571C7.39398 4.70321 7.3092 4.66809 7.22081 4.66809H1.22157C0.912301 4.66844 0.615798 4.79146 0.397109 5.01015C0.178421 5.22883 0.0554066 5.52534 0.0550537 5.83461V7.16777C0.0555824 7.47699 0.178653 7.77339 0.397304 7.99204C0.615954 8.21069 0.912355 8.33377 1.22157 8.33429H2.38809Z" fill="white"/>
<path d="M7.55394 9.66746C7.55394 9.57906 7.51883 9.49429 7.45633 9.43179C7.39382 9.36928 7.30905 9.33417 7.22065 9.33417H1.72135C1.63295 9.33417 1.54818 9.36928 1.48568 9.43179C1.42317 9.49429 1.38806 9.57906 1.38806 9.66746V14.8335C1.38859 15.1427 1.51166 15.4391 1.73031 15.6577C1.94896 15.8764 2.24536 15.9995 2.55458 16H7.22065C7.30905 16 7.39382 15.9649 7.45633 15.9024C7.51883 15.8399 7.55394 15.7551 7.55394 15.6667V9.66746Z" fill="white"/>
<path d="M8.88737 9.33417C8.79898 9.33417 8.71421 9.36928 8.6517 9.43179C8.5892 9.49429 8.55408 9.57906 8.55408 9.66746V15.6667C8.55408 15.7551 8.5892 15.8399 8.6517 15.9024C8.71421 15.9649 8.79898 16 8.88737 16H13.2202C13.5294 15.9995 13.8258 15.8764 14.0445 15.6577C14.2631 15.4391 14.3862 15.1427 14.3867 14.8335V9.66746C14.3867 9.57906 14.3516 9.49429 14.2891 9.43179C14.2266 9.36928 14.1418 9.33417 14.0534 9.33417H8.88737Z" fill="white"/>
<path d="M8.58226 4.47279C8.66329 4.55356 8.76374 4.61211 8.87395 4.64281C8.98415 4.67351 9.1004 4.67534 9.21152 4.6481C10.0001 4.45546 11.8979 3.94552 12.4778 3.3656C12.8474 2.99549 13.0548 2.49373 13.0544 1.97069C13.0541 1.44766 12.8459 0.946194 12.4758 0.576617C12.1057 0.207041 11.604 -0.000374518 11.0809 5.07675e-07C10.5579 0.000375533 10.0564 0.20851 9.68679 0.578617C9.18219 1.08322 8.70092 2.62969 8.40429 3.84487C8.38018 3.9561 8.38381 4.07156 8.41485 4.18106C8.44588 4.29056 8.50338 4.39075 8.58226 4.47279ZM10.6314 1.52116C10.6901 1.45955 10.7605 1.4103 10.8385 1.37631C10.9165 1.34232 11.0005 1.32427 11.0856 1.32324C11.1706 1.3222 11.2551 1.33819 11.3339 1.37027C11.4127 1.40235 11.4842 1.44987 11.5444 1.51003C11.6046 1.57019 11.6521 1.64178 11.6842 1.72059C11.7162 1.79939 11.7322 1.88381 11.7312 1.96889C11.7302 2.05396 11.7121 2.13797 11.6781 2.21597C11.6441 2.29396 11.5949 2.36437 11.5333 2.42305C11.0568 2.69913 10.5444 2.90819 10.0108 3.04431C10.1461 2.5103 10.355 1.99768 10.6314 1.52116Z" fill="white"/>
<path d="M7.70154 3.84222C7.40557 2.63104 6.9243 1.0839 6.42103 0.578634C6.05145 0.208704 5.55006 0.000738524 5.02715 0.000488507C4.50424 0.00023849 4.00265 0.207724 3.63272 0.577301C3.26279 0.946877 3.05482 1.44827 3.05457 1.97118C3.05432 2.49409 3.26181 2.99568 3.63138 3.36561C4.20998 3.94554 6.10774 4.45548 6.89764 4.64812C7.00875 4.67535 7.125 4.67353 7.23521 4.64283C7.34542 4.61212 7.44586 4.55357 7.52689 4.47281C7.60562 4.39017 7.66274 4.28939 7.69321 4.17939C7.72367 4.0694 7.72653 3.95359 7.70154 3.84222ZM4.5746 2.42307C4.51538 2.36389 4.4684 2.29363 4.43633 2.2163C4.40426 2.13897 4.38774 2.05608 4.38771 1.97236C4.38768 1.88864 4.40414 1.80574 4.43615 1.72838C4.46816 1.65103 4.51509 1.58073 4.57426 1.52151C4.63344 1.4623 4.7037 1.41531 4.78103 1.38325C4.85836 1.35118 4.94126 1.33466 5.02497 1.33463C5.19405 1.33457 5.35622 1.40167 5.47582 1.52118C5.75253 1.99755 5.96141 2.51021 6.09641 3.04432C5.56275 2.9089 5.05056 2.69981 4.5746 2.42307Z" fill="white"/>
</g>
</g>
<defs>
<clipPath id="clip0_397_111">
<rect width="16" height="16" fill="white" transform="translate(0.0550537)"/>
</clipPath>
</defs>
</svg>
