<svg width="135" height="34" viewBox="0 0 135 34" fill="none" xmlns="http://www.w3.org/2000/svg">
<g clip-path="url(#clip0_397_103)">
<path d="M35.9986 33.2875H16.371C7.43552 33.2875 0.0516001 26.1246 0.000638431 17.1891C-0.0509373 8.21678 7.2329 0.901632 16.1936 0.901632H35.9993V11.3733H17.1766C14.0519 11.3733 11.4234 13.8336 11.3491 16.957C11.273 20.175 13.8684 22.8164 17.0691 22.8164H28.8265V26.2756H17.2085C12.17 26.2756 7.96663 22.2748 7.88988 17.2376C7.8119 12.1101 11.9601 7.91408 17.0697 7.91408H32.5406V4.3615H16.3563C9.34628 4.3615 3.52928 9.95869 3.46112 16.9693C3.39236 24.0481 9.13077 29.8288 16.1942 29.8288H32.5406V22.4406C32.5406 20.4433 30.9221 18.8248 28.9248 18.8248H17.2294C16.274 18.8248 15.4998 18.0505 15.4998 17.0958C15.4998 16.1404 16.274 15.3662 17.2294 15.3662H28.9248C32.8323 15.3662 35.9999 18.5344 35.9999 22.4412V33.2887L35.9986 33.2875Z" fill="#00FFAD"/>
<path d="M61.0263 0.905322V2.8695C59.8063 1.50335 57.7605 0.700247 54.8636 0.700247C50.6829 0.700247 47.7044 2.51768 47.7044 6.82179C47.7044 11.1253 50.6829 12.9433 54.8636 12.9433C57.7365 12.9433 59.7891 12.1402 61.0263 10.7741C60.8857 13.8993 59.5196 15.3011 55.8546 15.3011C53.169 15.3011 50.4367 14.703 49.0116 14.4329V17.2886C50.1905 17.5993 53.1045 18.2618 56.6405 18.2618C61.2553 18.2618 64.5857 16.1097 64.5857 11.1431V0.905322H61.0263ZM56.1475 9.98817C52.8166 9.98817 51.2454 9.05612 51.2454 6.82179C51.2454 4.58746 52.8166 3.65541 56.1475 3.65541C59.4778 3.65541 61.0263 4.58807 61.0263 6.82179C61.0263 9.05612 59.4784 9.98817 56.1475 9.98817ZM76.5623 0.700247C74.2874 0.700247 72.1354 1.33942 70.3173 2.9751V0.905322H66.7819V13.0901H70.3173V5.78966C72.4694 4.11284 74.7442 3.65541 76.7323 3.65541C77.7645 3.65541 78.6965 3.77882 79.8521 4.0717V1.1104C79.025 0.905322 78.0107 0.700247 76.5629 0.700247L76.5623 0.700247ZM88.9374 0.700247C86.3923 0.700247 83.9529 1.15153 81.4669 1.96078L82.7274 4.54693C85.2313 3.80216 87.1776 3.65541 88.7728 3.65541C90.4263 3.65541 93.4048 3.84329 93.4048 6.15929C91.8096 5.6202 89.8866 5.29171 87.799 5.29171C83.929 5.29171 80.4519 6.2827 80.4519 9.44908C80.4519 12.1992 82.5862 13.2958 85.9988 13.2958C88.8717 13.2958 91.2527 12.6333 93.4042 11.5778V13.0907H96.9635V6.9452C96.9224 2.33655 94.0256 0.700861 88.9361 0.700861L88.9374 0.700247ZM93.4054 9.30233C91.5818 10.0882 88.9374 10.6918 87.0143 10.6918C85.173 10.6918 83.9947 10.5862 83.9947 9.30233C83.9947 8.06513 85.5837 7.6077 88.2343 7.6077C90.4859 7.6077 92.1627 7.95952 93.406 8.35248V9.30233H93.4054ZM109.579 0.700247C106.624 0.700247 104.22 1.67343 102.484 3.03405V0.905322H98.948V13.0901H102.484V6.26489C103.581 4.98103 106.143 3.76102 108.523 3.76102C111.437 3.76102 112.311 5.10383 112.311 7.68937V13.0901H115.864L115.905 6.34717C115.864 1.85579 112.827 0.700247 109.578 0.700247L109.579 0.700247ZM126.028 0.700247C123.483 0.700247 121.044 1.15153 118.557 1.96078L119.818 4.54693C122.322 3.80216 124.268 3.65541 125.863 3.65541C127.517 3.65541 130.495 3.84329 130.495 6.15929C128.9 5.6202 126.977 5.29171 124.889 5.29171C121.019 5.29171 117.542 6.2827 117.542 9.44908C117.542 12.1992 119.676 13.2958 123.089 13.2958C125.962 13.2958 128.343 12.6333 130.494 11.5778V13.0907H134.054V6.9452C134.013 2.33655 131.116 0.700861 126.026 0.700861L126.028 0.700247ZM130.496 9.30233C128.672 10.0882 126.028 10.6918 124.105 10.6918C122.263 10.6918 121.085 10.5862 121.085 9.30233C121.085 8.06513 122.674 7.6077 125.325 7.6077C127.576 7.6077 129.253 7.95952 130.496 8.35248V9.30233H130.496Z" fill="white"/>
<path d="M71.3114 21.1156L67.3179 30.5092L63.5947 21.1156H59.3728L55.6495 30.527L51.6561 21.1156H47.7044L53.1868 33.3004H57.9072L61.4844 24.8217L65.0615 33.3004H69.7819L75.2587 21.1156H71.3126H71.3114ZM76.5659 16.7532V19.8311H80.102V16.7532H76.5659ZM76.5659 21.1156V33.3004H80.102V21.1156H76.5659ZM92.929 20.9105C89.9738 20.9105 87.5694 21.8837 85.8336 23.2443V21.1156H82.2982V33.3004H85.8336V26.4752C86.9302 25.1907 89.4924 23.9713 91.8735 23.9713C94.7875 23.9713 95.6612 25.3141 95.6612 27.9003V33.3004H99.2144L99.2556 26.5575C99.2144 22.0661 96.177 20.9105 92.929 20.9105Z" fill="white"/>
</g>
<defs>
<clipPath id="clip0_397_103">
<rect width="134.055" height="32.5998" fill="white" transform="translate(0 0.700125)"/>
</clipPath>
</defs>
</svg>
