<svg width="40" height="40" viewBox="0 0 40 40" fill="none" xmlns="http://www.w3.org/2000/svg">
<rect width="40" height="40" rx="20" fill="#F04E34"/>
<path d="M13.8481 15.1683V23.6001H12.0654V16.8604H12.016L10.0851 18.0708V16.4899L12.1724 15.1683H13.8481ZM18.9976 23.7154C18.3635 23.7154 17.7995 23.6124 17.3054 23.4066C16.8141 23.198 16.4285 22.9139 16.1485 22.5544C15.8686 22.1948 15.7286 21.7872 15.7286 21.3316C15.7286 20.9803 15.8082 20.6577 15.9674 20.3641C16.1293 20.0676 16.3489 19.822 16.6261 19.6271C16.9033 19.4295 17.2135 19.3032 17.5566 19.2483V19.1907C17.1064 19.1001 16.7414 18.8819 16.4614 18.5361C16.1815 18.1875 16.0415 17.7826 16.0415 17.3215C16.0415 16.8851 16.1691 16.4967 16.4244 16.1564C16.6796 15.8133 17.0296 15.5443 17.4742 15.3494C17.9216 15.1518 18.4294 15.053 18.9976 15.053C19.5657 15.053 20.0721 15.1518 20.5168 15.3494C20.9642 15.5471 21.3155 15.8174 21.5707 16.1605C21.826 16.5008 21.955 16.8879 21.9577 17.3215C21.955 17.7854 21.8123 18.1902 21.5296 18.5361C21.2469 18.8819 20.8846 19.1001 20.4427 19.1907V19.2483C20.7803 19.3032 21.0863 19.4295 21.3608 19.6271C21.638 19.822 21.8576 20.0676 22.0195 20.3641C22.1842 20.6577 22.2679 20.9803 22.2706 21.3316C22.2679 21.7872 22.1265 22.1948 21.8466 22.5544C21.5666 22.9139 21.1796 23.198 20.6856 23.4066C20.1943 23.6124 19.6316 23.7154 18.9976 23.7154ZM18.9976 22.4061C19.2803 22.4061 19.5273 22.3554 19.7386 22.2538C19.95 22.1495 20.1147 22.0068 20.2327 21.8256C20.3535 21.6417 20.4138 21.4304 20.4138 21.1916C20.4138 20.9473 20.3521 20.7319 20.2286 20.5452C20.1051 20.3558 19.9376 20.2076 19.7263 20.1006C19.5149 19.9908 19.272 19.9359 18.9976 19.9359C18.7258 19.9359 18.4829 19.9908 18.2688 20.1006C18.0547 20.2076 17.8859 20.3558 17.7624 20.5452C17.6417 20.7319 17.5813 20.9473 17.5813 21.1916C17.5813 21.4304 17.6403 21.6417 17.7583 21.8256C17.8763 22.0068 18.0424 22.1495 18.2565 22.2538C18.4706 22.3554 18.7176 22.4061 18.9976 22.4061ZM18.9976 18.639C19.2336 18.639 19.4436 18.591 19.6275 18.4949C19.8114 18.3988 19.9555 18.2657 20.0598 18.0955C20.1641 17.9254 20.2162 17.7291 20.2162 17.5068C20.2162 17.2872 20.1641 17.0951 20.0598 16.9304C19.9555 16.763 19.8127 16.6326 19.6316 16.5393C19.4504 16.4432 19.2391 16.3952 18.9976 16.3952C18.7588 16.3952 18.5474 16.4432 18.3635 16.5393C18.1796 16.6326 18.0355 16.763 17.9312 16.9304C17.8297 17.0951 17.7789 17.2872 17.7789 17.5068C17.7789 17.7291 17.831 17.9254 17.9353 18.0955C18.0396 18.2657 18.1837 18.3988 18.3676 18.4949C18.5515 18.591 18.7615 18.639 18.9976 18.639ZM26.0368 22.3156V16.4858H27.5107V22.3156H26.0368ZM23.8588 20.1376V18.6637H29.6886V20.1376H23.8588Z" fill="#F6F7F9"/>
</svg>
