<svg width="30" height="30" viewBox="0 0 30 30" fill="none" xmlns="http://www.w3.org/2000/svg">
<g clip-path="url(#clip0_397_679)">
<path d="M29.5512 18.6286C27.5476 26.6644 19.4077 31.5548 11.3701 29.5509C3.33579 27.5476 -1.55518 19.4081 0.449278 11.373C2.45198 3.33629 10.5919 -1.55451 18.627 0.448851C26.6641 2.45221 31.5548 10.5926 29.5509 18.6287L29.5511 18.6286H29.5512Z" fill="#F7931A"/>
<path d="M21.615 12.8627C21.9136 10.8665 20.3937 9.79348 18.3153 9.07767L18.9896 6.37368L17.3434 5.96354L16.687 8.59634C16.2543 8.48841 15.8098 8.38672 15.3681 8.28591L16.0292 5.63573L14.3841 5.22559L13.7095 7.9287C13.3513 7.84717 12.9996 7.76659 12.6583 7.68169L12.6602 7.67318L10.3901 7.10636L9.95218 8.86439C9.95218 8.86439 11.1735 9.14432 11.1478 9.16155C11.8144 9.32791 11.9349 9.76914 11.9149 10.1189L11.1469 13.1994C11.1928 13.211 11.2523 13.2279 11.318 13.2543C11.2631 13.2406 11.2047 13.2257 11.144 13.2112L10.0675 17.5265C9.98606 17.7291 9.77928 18.033 9.31321 17.9176C9.32971 17.9415 8.11674 17.619 8.11674 17.619L7.29944 19.5031L9.44168 20.0371C9.84021 20.1371 10.2308 20.2416 10.6154 20.3399L9.93415 23.0749L11.5784 23.4851L12.253 20.7791C12.7022 20.901 13.1382 21.0135 13.5649 21.1195L12.8926 23.8127L14.5389 24.2229L15.22 21.493C18.0271 22.0242 20.1378 21.81 21.0262 19.2713C21.7421 17.2273 20.9906 16.0484 19.5138 15.2795C20.5894 15.0315 21.3996 14.3241 21.6156 12.8629L21.6151 12.8625L21.615 12.8627ZM17.8539 18.1362C17.3451 20.1802 13.9033 19.0753 12.7874 18.7982L13.6914 15.1748C14.8072 15.4533 18.3856 16.0045 17.854 18.1362H17.8539ZM18.363 12.8331C17.8989 14.6923 15.0342 13.7477 14.105 13.5161L14.9246 10.2299C15.8538 10.4615 18.8464 10.8938 18.3631 12.8331H18.363Z" fill="white"/>
</g>
<defs>
<clipPath id="clip0_397_679">
<rect width="30" height="30" fill="white"/>
</clipPath>
</defs>
</svg>
