<svg width="113" height="20" viewBox="0 0 113 20" fill="none" xmlns="http://www.w3.org/2000/svg">
<g clip-path="url(#clip0_397_663)">
<path d="M110.935 1.60099C109.495 0.600193 107.316 0.0954556 104.459 0.0954556H96.9779L94.1965 15.4133H84.3956L85.0256 11.938H90.9294L91.629 8.0347L85.7284 8.04332L86.3601 4.58353H92.4415L93.2506 0.0963497H80.9008L78.2604 14.6263H73.7283L76.3866 0.0955856H69.9308L67.2904 14.6256H62.8755L65.5363 0.0955856H59.0839L56.2991 15.4135H46.4279L47.0518 11.9381H52.9795L53.6799 8.057L47.7579 8.05098L48.3862 4.5843H54.5358L55.3398 0.0952148H16.8555L14.665 12.2335L10.3028 0.0952148H3.60491L0 19.9049H6.39659L8.57856 7.43183L12.8116 19.9049H35.7364L38.5237 4.5824H42.109L39.3217 19.9049H99.6416L101.391 10.2327L104.219 19.9049H110.619L107.688 12.0016L108.359 11.8551C109.836 11.5339 110.988 10.844 111.79 9.80959C112.592 8.76573 113 7.42553 113 5.81572C113 3.94156 112.324 2.56266 110.934 1.59985L110.935 1.60099ZM30.17 15.4133H20.3786L21.0109 11.938H27.1526L27.8489 8.02363H21.7663L22.3521 4.58452H32.1294L30.1682 15.4133H30.17ZM105.662 8.74082C105.018 9.1973 104.085 9.4195 102.809 9.4195H101.544L102.515 4.1035H103.445C104.505 4.1035 105.277 4.27576 105.811 4.62716C106.227 4.90278 106.721 5.44798 106.721 6.47893C106.72 7.72608 106.144 8.39615 105.66 8.74066L105.662 8.74082Z" fill="#83BA3B"/>
</g>
<defs>
<clipPath id="clip0_397_663">
<rect width="113" height="20" fill="white"/>
</clipPath>
</defs>
</svg>
