<svg width="80" height="28" viewBox="0 0 80 28" fill="none" xmlns="http://www.w3.org/2000/svg">
<g clip-path="url(#clip0_397_665)">
<path fill-rule="evenodd" clip-rule="evenodd" d="M57.4642 6.88542C59.2779 6.88542 60.7479 5.41254 60.7479 3.59629C60.7479 1.77898 59.2779 0.304688 57.4642 0.304688C55.6527 0.304688 54.1834 1.77898 54.1834 3.59629C54.1834 5.41254 55.6527 6.88542 57.4642 6.88542ZM32.3158 8.66171C32.1676 9.03479 31.1012 12.0544 28.522 15.1841V1.80232L21.6499 3.1638V27.4197H28.522V19.922C30.5124 22.9144 31.4952 27.4197 31.4952 27.4197H39.7266C38.9124 24.0266 35.3507 17.7702 35.3507 17.7702C38.5473 13.7076 39.9513 9.37887 40.1746 8.66171H32.3158ZM50.3822 8.40851C44.227 8.60654 41.1024 11.3747 41.1024 16.8776V27.4197H47.8175V18.8229C47.8175 15.5278 48.2479 14.1154 52.1486 13.9806V8.50505C51.4921 8.36536 50.3822 8.40851 50.3822 8.40851ZM10.1247 11.3327C9.28298 11.2771 7.33424 11.1509 7.33424 9.39231C7.33424 7.27017 10.1399 7.27017 11.1922 7.27017C13.0425 7.27017 15.4389 7.8183 17.1503 8.33142C17.1503 8.33142 18.1049 8.66878 18.9173 9.01428L18.9928 9.03479V3.22286L18.8891 3.19209C16.8695 2.48377 14.521 1.80232 10.167 1.80232C2.65994 1.80232 0 6.18629 0 9.94185C0 12.1068 0.925688 17.2019 9.52322 17.7896C10.2521 17.8345 12.1863 17.9463 12.1863 19.7636C12.1863 21.264 10.6027 22.1488 7.93925 22.1488C5.02037 22.1488 2.18898 21.4027 0.469194 20.6951V26.681C3.04376 27.3575 5.94606 27.6955 9.34754 27.6955C16.6878 27.6955 19.9753 23.5478 19.9753 19.4368C19.9753 14.7756 16.2965 11.7471 10.1247 11.3327ZM54.1354 27.4197H60.7962V8.68293H54.1354V27.4197ZM73.3382 2.99688V27.4197H80V1.80232L73.3382 2.99688ZM63.6177 2.99688L70.2732 1.80232V27.4197H63.6177V2.99688Z" fill="url(#paint0_linear_397_665)"/>
</g>
<defs>
<linearGradient id="paint0_linear_397_665" x1="21.6352" y1="0.304688" x2="27.6747" y2="34.0847" gradientUnits="userSpaceOnUse">
<stop stop-color="#6B195F"/>
<stop offset="1" stop-color="#4C255B"/>
</linearGradient>
<clipPath id="clip0_397_665">
<rect width="80" height="28" fill="white"/>
</clipPath>
</defs>
</svg>
