<svg width="30" height="30" viewBox="0 0 30 30" fill="none" xmlns="http://www.w3.org/2000/svg">
<g clip-path="url(#clip0_397_667)">
<mask id="mask0_397_667" style="mask-type:luminance" maskUnits="userSpaceOnUse" x="0" y="0" width="30" height="30">
<path d="M30 0H0V30H30V0Z" fill="white"/>
</mask>
<g mask="url(#mask0_397_667)">
<path fill-rule="evenodd" clip-rule="evenodd" d="M30 15C30 23.2842 23.2842 30 15 30C6.71573 30 0 23.2842 0 15C0 6.71573 6.71573 0 15 0C23.2842 0 30 6.71573 30 15Z" fill="#627EEA"/>
<path d="M15.4669 3.75V12.0656L22.4954 15.2062L15.4669 3.75Z" fill="white" fill-opacity="0.602"/>
<path d="M15.4669 3.75L8.4375 15.2062L15.4669 12.0656V3.75Z" fill="white"/>
<path d="M15.4669 20.5951V26.2455L22.5 16.5151L15.4669 20.5951Z" fill="white" fill-opacity="0.602"/>
<path d="M15.4669 26.2455V20.5942L8.4375 16.5151L15.4669 26.2455Z" fill="white"/>
<path d="M15.4669 19.2871L22.4954 15.2061L15.4669 12.0674V19.2871Z" fill="white" fill-opacity="0.2"/>
<path d="M8.4375 15.2061L15.4669 19.2871V12.0674L8.4375 15.2061Z" fill="white" fill-opacity="0.602"/>
</g>
</g>
<defs>
<clipPath id="clip0_397_667">
<rect width="30" height="30" fill="white"/>
</clipPath>
</defs>
</svg>
