<svg width="113" height="34" viewBox="0 0 113 34" fill="none" xmlns="http://www.w3.org/2000/svg">
<path fill-rule="evenodd" clip-rule="evenodd" d="M80.2621 32.1302C80.2741 31.9238 80.3467 31.7254 80.471 31.5595C80.5952 31.3937 80.7657 31.2675 80.9613 31.1967C81.157 31.1258 81.3692 31.1134 81.5718 31.1609C81.7745 31.2084 81.9587 31.3138 82.1018 31.464C82.2448 31.6142 82.3405 31.8027 82.3769 32.0063C82.4132 32.2098 82.3888 32.4195 82.3066 32.6094C82.2244 32.7993 82.088 32.9612 81.9142 33.0751C81.7404 33.1889 81.5368 33.2498 81.3286 33.2501C81.1901 33.2521 81.0526 33.2271 80.9239 33.1763C80.7953 33.1256 80.6779 33.0502 80.5786 32.9545C80.4793 32.8587 80.3999 32.7444 80.3451 32.6182C80.2902 32.492 80.261 32.3563 80.259 32.2189C80.259 32.1914 80.259 32.1608 80.2621 32.1302ZM83.1163 32.1302V30.3645H82.3488V30.7899C82.2161 30.6206 82.0443 30.4856 81.848 30.3961C81.6516 30.3066 81.4365 30.2654 81.2207 30.2758C80.7302 30.2758 80.2598 30.4692 79.9129 30.8135C79.5661 31.1579 79.3712 31.6249 79.3712 32.1118C79.3712 32.5987 79.5661 33.0657 79.9129 33.4101C80.2598 33.7544 80.7302 33.9478 81.2207 33.9478C81.4344 33.9581 81.6474 33.917 81.8417 33.8281C82.0359 33.7391 82.2057 33.6049 82.3365 33.4368V33.8621H83.104L83.1163 32.1302ZM109.008 32.1302C109.02 31.923 109.092 31.7237 109.216 31.5569C109.341 31.3901 109.511 31.2631 109.708 31.1916C109.904 31.12 110.117 31.1071 110.32 31.1544C110.524 31.2017 110.709 31.3072 110.852 31.4577C110.996 31.6083 111.092 31.7974 111.129 32.0016C111.166 32.2058 111.142 32.4163 111.059 32.6069C110.977 32.7976 110.84 32.9601 110.666 33.0744C110.491 33.1887 110.287 33.2498 110.078 33.2501C109.939 33.2526 109.801 33.2277 109.672 33.1769C109.542 33.1262 109.425 33.0506 109.325 32.9545C109.225 32.8583 109.146 32.7436 109.091 32.6168C109.036 32.4901 109.007 32.3538 109.005 32.2158C109.005 32.1872 109.006 32.1586 109.008 32.1302ZM112.723 33.7122V33.7673H112.815C112.817 33.7639 112.818 33.7603 112.818 33.7566C112.818 33.7528 112.817 33.7492 112.815 33.7458C112.817 33.7431 112.818 33.7399 112.818 33.7367C112.818 33.7334 112.817 33.7303 112.815 33.7275C112.806 33.7245 112.796 33.7245 112.787 33.7275L112.723 33.7122ZM112.772 33.6755C112.794 33.6754 112.815 33.6818 112.834 33.6938C112.846 33.7059 112.854 33.7223 112.855 33.7397C112.856 33.7476 112.855 33.7556 112.853 33.763C112.85 33.7705 112.846 33.7772 112.84 33.7826C112.834 33.7894 112.826 33.7949 112.817 33.7986C112.809 33.8023 112.8 33.8041 112.79 33.804L112.858 33.8805H112.815L112.75 33.804H112.732V33.8805H112.686V33.6602L112.772 33.6755ZM112.772 33.9509C112.794 33.957 112.818 33.957 112.84 33.9509C112.86 33.9424 112.879 33.9299 112.895 33.9142C112.911 33.8984 112.924 33.8797 112.932 33.8591C112.948 33.8155 112.948 33.768 112.932 33.7244C112.913 33.684 112.88 33.6515 112.84 33.6326C112.818 33.6235 112.795 33.6189 112.772 33.6189C112.749 33.6189 112.726 33.6235 112.704 33.6326C112.683 33.6411 112.664 33.6536 112.649 33.6693C112.633 33.6851 112.62 33.7038 112.612 33.7244C112.601 33.7453 112.596 33.7684 112.596 33.7917C112.596 33.8151 112.601 33.8382 112.612 33.8591C112.619 33.8802 112.632 33.8993 112.648 33.9152C112.664 33.9311 112.683 33.9432 112.704 33.9509C112.725 33.9622 112.748 33.9675 112.772 33.9662V33.9509ZM112.772 33.5561C112.803 33.556 112.833 33.5623 112.861 33.5745C112.901 33.5923 112.936 33.6209 112.96 33.6572C112.985 33.6935 112.999 33.7359 113 33.7795C113 33.8091 112.994 33.8384 112.982 33.8652C112.969 33.8914 112.953 33.9152 112.932 33.9356C112.912 33.9565 112.888 33.9732 112.861 33.9845C112.804 34.0059 112.74 34.0059 112.683 33.9845C112.654 33.9741 112.629 33.9574 112.609 33.9356C112.587 33.9167 112.571 33.8924 112.562 33.8652C112.55 33.8384 112.543 33.8091 112.544 33.7795C112.544 33.75 112.55 33.7208 112.562 33.6938C112.572 33.6674 112.588 33.6434 112.609 33.6234C112.631 33.6037 112.656 33.5872 112.683 33.5745C112.711 33.5623 112.741 33.556 112.772 33.5561ZM111.872 32.1302V28.96H111.12V30.796C110.987 30.6312 110.817 30.4998 110.624 30.4126C110.431 30.3253 110.219 30.2848 110.007 30.2941C109.517 30.2941 109.046 30.4876 108.699 30.8319C108.352 31.1762 108.158 31.6432 108.158 32.1302C108.158 32.6171 108.352 33.0841 108.699 33.4284C109.046 33.7727 109.517 33.9662 110.007 33.9662C110.22 33.976 110.433 33.9347 110.626 33.8457C110.82 33.7568 110.989 33.6228 111.12 33.4551V33.8805H111.89L111.872 32.1302ZM92.6255 30.9582C92.8566 30.9532 93.0803 31.0393 93.2478 31.1975C93.4153 31.3557 93.5129 31.5733 93.5194 31.8027H91.7008C91.7194 31.5722 91.825 31.3572 91.9964 31.2006C92.1679 31.044 92.3925 30.9574 92.6255 30.9582ZM92.6409 30.2758C91.6083 30.2758 90.887 31.0224 90.887 32.1118C90.8715 32.3377 90.901 32.5643 90.9738 32.7789C91.0466 32.9934 91.1613 33.1916 91.3113 33.3621C91.4613 33.5326 91.6437 33.6721 91.848 33.7726C92.0524 33.8731 92.2746 33.9327 92.5022 33.9478C92.5638 33.9478 92.6286 33.9478 92.6933 33.9478C93.2192 33.9651 93.7333 33.7909 94.1389 33.4582L93.7629 32.8952C93.4712 33.1271 93.1101 33.2563 92.7364 33.2624C92.4829 33.2839 92.231 33.2064 92.0341 33.0464C91.8373 32.8864 91.711 32.6565 91.6823 32.4056H94.2992C94.2992 32.3076 94.3146 32.2128 94.3146 32.0996C94.3146 31.0071 93.6303 30.2635 92.6409 30.2635V30.2758ZM101.888 32.1118C101.899 31.9044 101.972 31.7049 102.097 31.5379C102.221 31.371 102.392 31.244 102.589 31.1727C102.785 31.1014 102.998 31.0888 103.202 31.1366C103.406 31.1844 103.591 31.2905 103.734 31.4416C103.878 31.5928 103.974 31.7824 104.01 31.987C104.046 32.1916 104.02 32.4023 103.937 32.5928C103.854 32.7833 103.716 32.9454 103.541 33.059C103.366 33.1726 103.161 33.2326 102.951 33.2318C102.812 33.2342 102.674 33.2093 102.545 33.1586C102.416 33.1078 102.298 33.0322 102.198 32.9361C102.099 32.84 102.019 32.7252 101.964 32.5985C101.909 32.4717 101.88 32.3354 101.879 32.1975C101.88 32.1688 101.883 32.1402 101.888 32.1118ZM104.742 32.1118V30.3645H103.975V30.7899C103.844 30.6228 103.674 30.4891 103.481 30.3997C103.287 30.3103 103.075 30.2678 102.862 30.2758C102.372 30.2758 101.901 30.4692 101.554 30.8135C101.207 31.1579 101.013 31.6249 101.013 32.1118C101.013 32.5987 101.207 33.0657 101.554 33.4101C101.901 33.7544 102.372 33.9478 102.862 33.9478C103.075 33.9576 103.288 33.9163 103.481 33.8274C103.675 33.7384 103.844 33.6044 103.975 33.4368V33.8621H104.742V32.1118ZM97.5604 32.1118C97.5504 32.3433 97.5866 32.5745 97.6668 32.7921C97.7469 33.0097 97.8696 33.2095 98.0276 33.3801C98.1856 33.5506 98.376 33.6885 98.5878 33.7859C98.7996 33.8834 99.0286 33.9384 99.2618 33.9478C99.3213 33.9524 99.3811 33.9524 99.4406 33.9478C99.9003 33.9704 100.352 33.822 100.707 33.5316L100.341 32.9196C100.074 33.1183 99.7494 33.2256 99.4159 33.2256C99.1312 33.2047 98.8649 33.0777 98.6705 32.8699C98.4762 32.6622 98.3682 32.3892 98.3682 32.1057C98.3682 31.8222 98.4762 31.5492 98.6705 31.3414C98.8649 31.1337 99.1312 31.0066 99.4159 30.9857C99.7489 30.9887 100.072 31.0958 100.341 31.2917L100.707 30.6797C100.353 30.3882 99.9007 30.2387 99.4406 30.2605C98.9686 30.2346 98.5056 30.3956 98.1531 30.7083C97.8006 31.021 97.5874 31.4597 97.5604 31.9282C97.5572 31.9842 97.5572 32.0404 97.5604 32.0965V32.1118ZM107.442 30.2758C107.256 30.2725 107.073 30.3183 106.91 30.4086C106.748 30.499 106.612 30.6305 106.518 30.7899V30.3645H105.759V33.8652H106.527V31.9007C106.527 31.3223 106.777 31.001 107.279 31.001C107.443 30.9996 107.605 31.0298 107.757 31.0897L107.994 30.3706C107.819 30.3102 107.634 30.2782 107.449 30.2758H107.442ZM86.8922 30.643C86.4585 30.3872 85.9601 30.2598 85.4559 30.2758C84.562 30.2758 83.9886 30.7011 83.9886 31.3957C83.9886 31.968 84.414 32.3138 85.2031 32.43L85.5668 32.4821C85.986 32.5402 86.1833 32.6504 86.1833 32.8462C86.1833 33.1185 85.9028 33.2715 85.3788 33.2715C84.9568 33.2842 84.5429 33.1548 84.2044 32.9043L83.8407 33.498C84.2902 33.8133 84.8319 33.9725 85.3819 33.9509C86.3991 33.9509 86.9878 33.4766 86.9878 32.8095C86.9878 32.1975 86.5224 31.8731 85.7548 31.763L85.3911 31.7109C85.0613 31.6681 84.7962 31.6008 84.7962 31.3682C84.7962 31.1356 85.0459 30.9582 85.4651 30.9582C85.8519 30.9671 86.2303 31.0723 86.5655 31.2642L86.8922 30.643ZM96.7867 30.2758C96.6003 30.2712 96.416 30.3165 96.2533 30.4069C96.0906 30.4974 95.9554 30.6297 95.862 30.7899V30.3645H95.1006V33.8652H95.862V31.9007C95.862 31.3223 96.1116 31.001 96.6141 31.001C96.7786 30.9999 96.9418 31.03 97.0949 31.0897L97.3292 30.3706C97.1536 30.3102 96.9694 30.2782 96.7836 30.2758H96.7867ZM90.2459 30.3645H88.9883V29.3027H88.2146V30.3645H87.4995V31.0591H88.2146V32.6565C88.2146 33.4704 88.5228 33.9509 89.4475 33.9509C89.7865 33.9545 90.1193 33.861 90.4062 33.6816L90.1842 33.0298C89.9791 33.1526 89.7456 33.2211 89.5061 33.2287C89.1239 33.2287 88.9975 32.9931 88.9975 32.6412V31.0591H90.252L90.2459 30.3645ZM78.7825 33.8652V31.6681C78.7942 31.4963 78.7715 31.324 78.7158 31.161C78.66 30.998 78.5723 30.8476 78.4576 30.7184C78.343 30.5892 78.2037 30.4839 78.0479 30.4084C77.892 30.333 77.7227 30.2889 77.5496 30.2788C77.4942 30.2742 77.4385 30.2742 77.3831 30.2788C77.1415 30.2637 76.9001 30.3124 76.6836 30.4199C76.467 30.5274 76.283 30.6899 76.1502 30.8908C76.0285 30.695 75.8563 30.5351 75.6515 30.4275C75.4466 30.3199 75.2165 30.2686 74.985 30.2788C74.7823 30.2696 74.5806 30.3126 74.3996 30.4038C74.2187 30.495 74.0646 30.6311 73.9524 30.799V30.3645H73.2065V33.8652H73.9771V31.9251C73.9771 31.3131 74.3161 31.0071 74.8401 31.0071C75.3641 31.0071 75.6077 31.3345 75.6077 31.9251V33.8744H76.3813V31.9343C76.3657 31.8153 76.3767 31.6944 76.4136 31.5801C76.4505 31.4658 76.5124 31.3611 76.5949 31.2734C76.6774 31.1856 76.7784 31.1171 76.8907 31.0727C77.003 31.0282 77.1237 31.009 77.2444 31.0163C77.753 31.0163 78.0181 31.3437 78.0181 31.9343V33.8836L78.7825 33.8652Z" fill="#231F20"/>
<path fill-rule="evenodd" clip-rule="evenodd" d="M87.108 21.5031H97.7176V2.57373H87.108V21.5031Z" fill="#FF5F00"/>
<path fill-rule="evenodd" clip-rule="evenodd" d="M87.78 12.0382C87.7773 10.2158 88.1921 8.41665 88.9932 6.77691C89.7942 5.13717 90.9604 3.69978 92.4035 2.57349C90.6147 1.1777 88.4663 0.309706 86.2041 0.068717C83.9418 -0.172272 81.6568 0.223467 79.6104 1.2107C77.564 2.19794 75.8386 3.73684 74.6315 5.65152C73.4244 7.56619 72.7842 9.7794 72.7842 12.0382C72.7842 14.2969 73.4244 16.5101 74.6315 18.4248C75.8386 20.3395 77.564 21.8784 79.6104 22.8656C81.6568 23.8529 83.9418 24.2486 86.2041 24.0076C88.4663 23.7666 90.6147 22.8986 92.4035 21.5028C90.9601 20.3769 89.7936 18.9395 88.9925 17.2997C88.1915 15.6599 87.7768 13.8606 87.78 12.0382Z" fill="#EB001B"/>
<path fill-rule="evenodd" clip-rule="evenodd" d="M112.044 12.0382C112.046 14.2975 111.408 16.5116 110.201 18.4272C108.995 20.3428 107.269 21.8825 105.222 22.8701C103.176 23.8577 100.89 24.2532 98.6275 24.0114C96.3648 23.7696 94.2164 22.9003 92.4282 21.5029C93.8693 20.3748 95.034 18.937 95.8348 17.2977C96.6355 15.6583 97.0516 13.8601 97.0516 12.0382C97.0516 10.2163 96.6355 8.41812 95.8348 6.7788C95.034 5.13948 93.8693 3.7017 92.4282 2.57356C94.2171 1.17866 96.3652 0.31142 98.627 0.0709141C100.889 -0.169591 103.173 0.226336 105.219 1.21347C107.265 2.20059 108.99 3.73912 110.197 5.65326C111.404 7.56741 112.044 9.77999 112.044 12.0382Z" fill="#F79E1B"/>
<path fill-rule="evenodd" clip-rule="evenodd" d="M110.041 24.0764V22.8799H109.733L109.372 23.703L109.011 22.8799H108.703V24.0764H108.925V23.1583L109.264 23.9356H109.492L109.831 23.1553V24.0733L110.041 24.0764ZM108.05 24.0764V23.0849H108.454V22.8829H107.427V23.0849H107.831V24.0764H108.05Z" fill="#231F20"/>
<path d="M25.3372 6.73211L16.6017 27.4393H10.9024L6.60554 10.9152C6.34045 9.89924 6.11544 9.52898 5.32327 9.07916C4.0225 8.40595 1.88642 7.75416 0 7.34412L0.132542 6.73211H9.3057C9.9057 6.73102 10.4862 6.94341 10.942 7.33077C11.3978 7.71814 11.6987 8.25483 11.7901 8.84353L14.0618 20.8205L19.6717 6.74435L25.3372 6.73211ZM47.6721 20.6675C47.6967 15.2084 40.0617 14.9116 40.1172 12.4697C40.1172 11.723 40.8446 10.9397 42.4012 10.7346C44.2255 10.5592 46.0637 10.8764 47.7214 11.6526L48.6677 7.26762C47.0541 6.66607 45.3454 6.35519 43.6218 6.34961C38.2924 6.34961 34.5411 9.16484 34.5103 13.1918C34.4764 16.1692 37.1858 17.8308 39.2325 18.8223C41.3316 19.8352 42.0344 20.4839 42.0282 21.3958C42.0282 22.782 40.3514 23.3909 38.801 23.4185C36.0916 23.4582 34.5165 22.6902 33.2527 22.1088L32.2756 26.6468C33.5332 27.219 35.8635 27.7178 38.2739 27.7484C43.9393 27.7484 47.6443 24.9638 47.6628 20.6614M61.7339 27.421H66.7335L62.3812 6.73211H57.7761C57.2837 6.73066 56.8021 6.87561 56.3933 7.1483C55.9846 7.42099 55.6675 7.80893 55.4828 8.26213L47.3916 27.4393H53.0539L54.1759 24.3487H61.0958L61.7339 27.421ZM55.7171 20.0769L58.5652 12.3381L60.1958 20.1075L55.7171 20.0769ZM33.0431 6.73211L28.5829 27.4393H23.1887L27.652 6.73211H33.0431Z" fill="#1A1F71"/>
</svg>
