<svg width="26" height="26" viewBox="0 0 26 26" fill="none" xmlns="http://www.w3.org/2000/svg">
<path d="M11.0066 13L5.76873 4.62044C5.63873 4.41461 5.66581 4.14919 5.8229 3.97044C5.9854 3.79169 6.2454 3.74294 6.46748 3.84586L24.3425 12.5125C24.5266 12.6046 24.6458 12.7942 24.6458 13C24.6458 13.2059 24.5266 13.3954 24.3425 13.4875L6.46748 22.1542C6.39165 22.1921 6.31581 22.2084 6.23456 22.2084C6.0829 22.2084 5.93123 22.1434 5.83373 22.0296C5.67123 21.8509 5.64956 21.5854 5.77956 21.3796L11.0066 13ZM22.8637 13L7.68623 5.63877L12.1062 12.7129C12.2146 12.8863 12.2146 13.1138 12.1062 13.2871L7.68623 20.3613L22.8637 13Z" fill="#9E01FF"/>
<path d="M6.67334 13L1.43542 4.62046C1.35959 4.49587 1.33251 4.35504 1.36501 4.21421C1.3975 4.07337 1.48417 3.95421 1.60334 3.87837C1.72792 3.80254 1.87417 3.77546 2.01501 3.80796C2.15584 3.84046 2.275 3.92712 2.35084 4.05171L7.7675 12.7184C7.87584 12.8917 7.87584 13.1192 7.7675 13.2925L2.35084 21.9592C2.25334 22.1217 2.08001 22.2138 1.89042 22.2138C1.78751 22.2138 1.69 22.1867 1.60334 22.1325C1.47875 22.0567 1.3975 21.9375 1.36501 21.7967C1.33251 21.6559 1.35417 21.5096 1.43542 21.3905L6.67334 13Z" fill="#9E01FF"/>
</svg>
