<svg width="18" height="18" viewBox="0 0 18 18" fill="none" xmlns="http://www.w3.org/2000/svg">
<path fill-rule="evenodd" clip-rule="evenodd" d="M16.5 9.00001C16.5 10.035 15.66 10.875 14.625 10.875H10.875V14.625C10.875 15.66 10.035 16.5 9 16.5C7.965 16.5 7.12499 15.66 7.12499 14.625V10.875H3.37501C2.34001 10.875 1.5 10.035 1.5 9.00001C1.5 7.965 2.34001 7.125 3.37501 7.125H7.12499V3.375C7.12499 2.34 7.965 1.5 9 1.5C10.035 1.5 10.875 2.34 10.875 3.375V7.125H14.625C15.66 7.125 16.5 7.965 16.5 9.00001Z" fill="#9E01FF"/>
</svg>
